<?xml version="1.0" encoding="utf-8"?>
<!-- Generator: Adobe Illustrator 22.1.0, SVG Export Plug-In . SVG Version: 6.00 Build 0)  -->
<svg version="1.1" id="Layer_1" xmlns="http://www.w3.org/2000/svg" xmlns:xlink="http://www.w3.org/1999/xlink" x="0px" y="0px"
	 viewBox="0 0 86.5 44.4" style="enable-background:new 0 0 86.5 44.4;" xml:space="preserve">
<style type="text/css">
	.st0{fill:#0352FB;}
</style>
<g>
	<path class="st0" d="M2.9,20.3c-0.3,0.2-0.6,0.3-1,0.3s-0.7-0.1-0.9-0.3s-0.3-0.4-0.3-0.7s0-0.4,0.1-0.6c0.2,0.1,0.6,0.2,1.1,0.2
		s0.9-0.3,1.2-1v-5.6c0-0.4-0.1-0.6-0.2-0.8c-0.2-0.3-0.6-0.6-1.2-0.8c0.6-0.3,0.9-0.5,1.1-0.7C3,10,3.1,9.7,3.1,9.3V4.4
		C2.9,3.8,2.4,3.5,1.7,3.5C1.4,3.5,1.2,3.6,1,3.7C0.9,3.6,0.9,3.4,0.9,3.3S0.9,3,1,2.9c0.1-0.1,0.2-0.2,0.3-0.4
		C1.6,2.3,2,2.2,2.4,2.2s0.9,0.1,1.2,0.4c0.2-0.3,0.5-0.4,0.9-0.4s0.7,0.1,0.9,0.4c0.2-0.3,0.5-0.4,0.7-0.4s0.4,0,0.5,0.1
		c0.1,0,0.2,0.1,0.3,0.2c0.1,0.1,0.3,0.3,0.4,0.6l7.3,13.1v-3.6c0-0.3-0.1-0.6-0.2-0.8c-0.2-0.2-0.6-0.5-1.2-0.8
		c0.5-0.3,0.9-0.5,1-0.6c0.3-0.3,0.4-0.6,0.4-0.9V4.6C14.5,4.2,14.3,4,14,3.8c-0.3-0.2-0.6-0.3-0.9-0.3s-0.6,0.1-0.8,0.2
		c-0.1-0.1-0.1-0.3-0.1-0.6s0.1-0.5,0.4-0.6c0.2-0.2,0.6-0.3,0.9-0.3s0.7,0.1,1,0.3c0.3-0.2,0.6-0.3,0.9-0.3s0.7,0.1,0.9,0.3
		c0.3-0.2,0.6-0.3,1-0.3c0.4,0,0.7,0.1,0.9,0.3c0.2,0.2,0.3,0.4,0.3,0.7s0,0.4-0.1,0.6c-0.2-0.1-0.6-0.2-1.1-0.2
		c-0.5,0-0.9,0.3-1.2,1v5c0,0.3,0.1,0.6,0.2,0.7c0.2,0.3,0.6,0.5,1.2,0.8c-0.6,0.3-1,0.6-1.1,0.7c-0.2,0.2-0.3,0.5-0.3,0.8l0.2,6
		c0.3,0.5,0.7,0.8,1.3,0.8c0.3,0,0.5-0.1,0.7-0.2c0.1,0.1,0.1,0.3,0.1,0.4s0,0.3-0.1,0.4s-0.2,0.2-0.3,0.4c-0.3,0.2-0.6,0.3-1,0.3
		s-0.7-0.1-1.1-0.2c-0.6,0.4-1.2,0.3-1.9-0.1c-0.3,0.2-0.5,0.3-0.7,0.3c-0.2,0-0.4,0-0.5-0.1s-0.2-0.1-0.3-0.2
		c-0.1-0.1-0.4-0.5-0.7-1.1L4.8,6.8v11.5c0.3,0.7,0.7,1,1.2,1s0.9-0.1,1.1-0.2c0.1,0.1,0.1,0.3,0.1,0.6s-0.1,0.5-0.4,0.6
		s-0.6,0.3-0.9,0.3c-0.4,0-0.7-0.1-1.1-0.3c-0.3,0.2-0.6,0.3-1,0.3S3.2,20.5,2.9,20.3z M12.1,17.3c0.1-0.1,0.1-0.2,0.1-0.3
		s0-0.3-0.1-0.5S12,16,11.9,15.8c-0.2-0.4-0.4-0.9-0.6-1.4l-5-8.7C6.3,5.8,6.2,6,6.2,6.2c0,0.5,0.3,1.3,1,2.5L12.1,17.3z"/>
	<path class="st0" d="M22.6,20.2c-0.4,0.2-0.8,0.4-1.2,0.4s-0.8-0.1-1-0.3s-0.3-0.4-0.3-0.6c0-0.3,0.1-0.5,0.2-0.6
		c0.2,0.1,0.4,0.2,0.8,0.2c0.3,0,0.6-0.2,0.9-0.7v-3.7c0-0.3-0.1-0.6-0.2-0.8c-0.2-0.2-0.6-0.5-1.2-0.8c0.5-0.2,0.9-0.4,1-0.6
		c0.3-0.3,0.4-0.6,0.4-0.9v-1.7c0-0.7-0.2-1-0.7-1.1c-0.1,0-0.3,0-0.5,0c-0.2,0-0.4,0.1-0.6,0.2c-0.1-0.1-0.2-0.3-0.2-0.5
		s0-0.3,0.1-0.5c0.1-0.2,0.2-0.4,0.4-0.6C20.8,7.2,21.3,7,21.8,7c0.5,0,1,0.1,1.4,0.3c0.4-0.5,0.8-0.8,1.3-0.8
		c0.8,0,1.2,0.4,1.2,1.3v4c0,0.4,0.1,0.6,0.2,0.8c0.2,0.2,0.6,0.5,1.2,0.7c-0.6,0.3-1,0.5-1.1,0.7c-0.2,0.2-0.3,0.5-0.3,0.9v3.8
		c0.3,0.4,0.6,0.6,0.9,0.6s0.6-0.1,0.8-0.2c0.1,0.1,0.2,0.3,0.2,0.6s-0.1,0.4-0.3,0.6s-0.6,0.3-1,0.3c-0.4,0-0.9-0.1-1.2-0.4
		c-0.3,0.2-0.7,0.4-1.2,0.4C23.4,20.6,23,20.5,22.6,20.2z M23.8,4.9c-0.4,0-0.8-0.1-1.2-0.3S22,4,21.8,3.7c-0.2-0.4-0.5-0.6-0.8-0.8
		c-0.1-0.1-0.2-0.1-0.4-0.2L21,2.5c0.4-0.2,0.7-0.5,0.8-0.9s0.5-0.6,0.8-0.8s0.8-0.3,1.2-0.3c0.9,0,1.5,0.4,1.9,1.1
		c0.3,0.5,0.7,0.8,1.2,1.1c-0.1,0.1-0.2,0.1-0.3,0.2c-0.1,0.1-0.2,0.1-0.3,0.2c-0.2,0.2-0.4,0.4-0.6,0.7c-0.2,0.3-0.4,0.6-0.8,0.8
		C24.6,4.7,24.2,4.9,23.8,4.9z M23.2,3.4c0-0.1-0.1-0.2-0.1-0.3c0-0.1,0-0.3,0-0.6s0.1-0.7,0.4-1.1c-0.3,0-0.5,0.1-0.6,0.2
		s-0.2,0.2-0.3,0.3S22.5,2,22.5,2.1c0,0.1-0.1,0.2-0.2,0.2c-0.1,0.2-0.3,0.3-0.4,0.4c0.1,0.1,0.2,0.2,0.3,0.3
		c0.1,0.2,0.2,0.3,0.4,0.5c0.2,0.3,0.5,0.4,0.8,0.4c0-0.1-0.1-0.2-0.1-0.2C23.3,3.6,23.2,3.5,23.2,3.4z M23.6,14.7
		c0-0.3,0-0.5,0-0.7c0-0.2,0-0.3,0-0.4v-0.3c0-0.1,0-0.3,0-0.5c0-0.2,0-0.4,0-0.6c0-0.2,0-0.4,0-0.7c0-0.5-0.1-0.9-0.1-1.1
		c-0.1-0.5-0.3-0.8-0.5-0.9v0.8c0,1.3,0,2.1-0.1,2.3c-0.1,0.2-0.2,0.4-0.3,0.5s-0.3,0.2-0.6,0.3c0.5,0.2,0.7,0.4,0.8,0.6
		c0.1,0.4,0.1,1.2,0.1,2.5v0.8c0.4-0.2,0.6-0.7,0.6-1.4C23.6,15.3,23.6,14.9,23.6,14.7z"/>
	<path class="st0" d="M31,25.9c-0.4,0.3-0.8,0.4-1.2,0.4c-0.5,0-0.8-0.1-1-0.3c-0.2-0.2-0.3-0.4-0.3-0.6c0-0.3,0.1-0.5,0.2-0.6
		C28.8,25,29,25,29.3,25c0.5,0,0.8-0.3,1-0.8V15c0-0.4-0.1-0.6-0.2-0.8c-0.2-0.3-0.6-0.6-1.2-0.9c1-0.4,1.4-1.1,1.4-2v-1.2
		c0-0.7-0.2-1-0.7-1.1c-0.1,0-0.3,0-0.5,0s-0.4,0.1-0.6,0.2c-0.1-0.1-0.2-0.3-0.2-0.5s0-0.3,0.1-0.5c0.1-0.2,0.2-0.4,0.4-0.6
		C29.3,7.2,29.7,7,30.3,7s1,0.1,1.4,0.3c0.4-0.5,0.9-0.7,1.4-0.7c0.8,0,1.2,0.4,1.2,1.3v0.1c0.6-0.6,1.4-1,2.4-1.3
		c0.3-0.1,0.7-0.1,1.2-0.1s1,0.1,1.5,0.2c0.5,0.1,1,0.4,1.4,0.8c0.8,0.7,1.3,2,1.4,3.8c0.1,1,0.6,1.6,1.4,2
		c-0.6,0.3-0.9,0.5-1.1,0.7c-0.2,0.3-0.3,0.6-0.4,1c-0.2,1.9-0.7,3.3-1.5,4.2c-0.8,1-2,1.5-3.5,1.5c-1.2,0-2.2-0.3-3-0.9v4.5
		c0.2,0.5,0.5,0.8,1,0.8c0.3,0,0.5-0.1,0.7-0.2C36,25,36,25.2,36,25.4s-0.1,0.4-0.3,0.6c-0.2,0.2-0.6,0.3-1,0.3
		c-0.5,0-0.9-0.1-1.2-0.4c-0.3,0.3-0.7,0.4-1.2,0.4C31.8,26.3,31.4,26.2,31,25.9z M31.4,20.7c0.4-0.2,0.6-0.8,0.6-1.6
		c0-0.5,0-1,0-1.6c0-1.3,0-2.2,0-2.5s0-0.7,0-0.9v-0.9c0-0.1,0-0.3,0-0.5s0-0.4,0-0.6c0-0.2,0-0.4,0-0.6c0-0.8-0.1-1.3-0.3-1.5
		c-0.1-0.2-0.3-0.4-0.4-0.5v0.7c0,1.4,0,2.2-0.1,2.4c-0.1,0.2-0.2,0.4-0.3,0.5c-0.1,0.1-0.3,0.2-0.6,0.3c0.5,0.2,0.7,0.4,0.8,0.6
		c0.1,0.3,0.1,1.3,0.1,2.9V20.7z M34.2,16.6c0,0.6,0.2,1.2,0.6,1.6c0.4,0.4,0.9,0.7,1.4,0.7c1.3,0,2-0.9,2-2.8V11
		c0-0.9-0.2-1.5-0.5-2c-0.3-0.5-0.7-0.7-1.3-0.7c-1,0-1.7,0.5-2.1,1.6c-0.1,0.4-0.2,0.8-0.2,1.3V16.6z M39.3,17.3
		c0.4-0.1,0.6-0.7,0.7-1.5c0-0.9,0.1-1.5,0.1-2s0-0.8,0-1.1s0-0.6,0-0.9c0-1.1-0.1-1.8-0.3-2c-0.1-0.2-0.3-0.3-0.4-0.4V17.3z"/>
	<path class="st0" d="M47.5,20.1c-0.5,0.5-1,0.8-1.5,0.8c-0.3,0-0.5-0.1-0.6-0.3c0.2-0.2,0.3-0.4,0.3-0.5s0-0.3-0.1-0.4l-0.2-0.3
		l0.2,0.4c-0.2-0.1-0.3-0.2-0.4-0.4C45,19,45,18.8,45,18.5s0.2-0.6,0.5-1c-0.2-0.2-0.2-0.5-0.2-0.7s0-0.5,0.1-0.7
		c0.1-0.2,0.2-0.3,0.3-0.5c0.3-0.3,0.6-0.4,1-0.4c0.2,0,0.4,0.1,0.5,0.2c-0.2,0.2-0.3,0.6-0.3,1.1s0.1,0.9,0.3,1.2
		c0.2,0.3,0.4,0.6,0.7,0.9c0.6,0.5,1.4,0.8,2.3,0.8c1,0,1.7-0.4,2.1-1.1c0.1-0.2,0.2-0.4,0.2-0.7s-0.1-0.4-0.2-0.6
		c-0.1-0.2-0.2-0.3-0.4-0.5c-0.3-0.3-0.7-0.6-1.3-0.9c-0.5-0.4-1.2-0.6-1.9-0.6c-0.5,0-0.8,0-1,0.1c0.1-0.2,0.2-0.5,0.2-0.7
		s-0.2-0.5-0.5-0.8s-0.6-0.6-0.8-0.8c-0.2-0.3-0.4-0.6-0.6-0.8c-0.3-0.5-0.4-1.1-0.4-1.7s0.1-1.1,0.4-1.6c0.2-0.5,0.6-0.8,1-1.2
		c0.9-0.7,2.1-1,3.6-1c0.7,0,1.2,0,1.4,0.1s0.5,0.1,0.6,0.2c0.2,0.1,0.5,0.1,0.8,0.1c0.3,0,0.5-0.1,0.6-0.2s0.2-0.3,0.2-0.4
		s0-0.2,0-0.3c0,0,0.1,0,0.2,0c0.1,0,0.2,0,0.3,0.1s0.2,0.1,0.3,0.2c0.2,0.2,0.3,0.4,0.3,0.7s0,0.4-0.1,0.5c0.2,0.2,0.3,0.5,0.3,0.9
		s-0.2,0.7-0.5,0.9C55,9.5,55,9.7,55,9.9s-0.1,0.4-0.3,0.6s-0.4,0.3-0.6,0.3c-0.3,0-0.6,0-0.7-0.1c0.1-0.2,0.2-0.5,0.2-0.8
		S53.5,9.3,53.3,9c-0.2-0.3-0.4-0.5-0.6-0.6c-0.5-0.3-1-0.5-1.6-0.5c-0.8,0-1.3,0.2-1.6,0.7c-0.1,0.2-0.1,0.3-0.1,0.5s0,0.4,0.1,0.5
		s0.1,0.3,0.3,0.5c0.2,0.3,0.5,0.6,1,0.9c0.5,0.4,0.9,0.5,1.1,0.5c0.5,0,0.8-0.1,1.2-0.3c-0.1,0.4-0.1,0.6-0.1,0.8
		c0,0.2,0.2,0.5,0.5,0.8c1,0.7,1.7,1.3,2.1,1.9c0.4,0.6,0.5,1.2,0.5,1.9c0,0.7-0.2,1.3-0.5,1.8s-0.7,0.9-1.2,1.3
		c-1.1,0.7-2.4,1.1-4,1.1C49.3,20.7,48.3,20.5,47.5,20.1z M47,9.3c-0.2,0.1-0.3,0.4-0.3,0.9s0.2,1,0.5,1.4c0.3,0.4,0.8,1,1.5,1.5
		c0.2,0.1,0.2,0.2,0.2,0.4c0,0.2,0,0.3,0,0.4c0.1,0,0.3,0,0.5-0.1c0.6-0.1,1.3,0.2,2.1,0.8c1.3,0.8,2,1.7,2,2.6c0,0.3,0,0.6-0.1,0.8
		c0.3-0.1,0.5-0.3,0.6-0.7c0-0.1,0.1-0.3,0.1-0.4c0-0.6-0.3-1.3-1-1.9s-1.7-1.3-2.9-1.9C48,12.1,47,10.8,47,9.3z"/>
	<path class="st0" d="M67.8,16.8c0.2-0.3,0.5-0.5,0.9-0.5c0.3,0,0.6,0.1,0.7,0.4c0.1,0.2,0.2,0.5,0.2,0.7s-0.1,0.6-0.2,0.9
		s-0.4,0.6-0.6,0.8c-0.3,0.2-0.6,0.5-0.9,0.6s-0.7,0.3-1.1,0.5c-0.8,0.3-1.6,0.4-2.4,0.4s-1.6-0.1-2.4-0.4s-1.4-0.7-1.9-1.2
		c-1-1-1.6-2.3-1.9-4.1c-0.1-0.4-0.1-0.7-0.3-0.8c-0.2-0.3-0.6-0.6-1.2-0.8c0.7-0.3,1.1-0.8,1.3-1.5c0.1-0.2,0.1-0.4,0.1-0.6
		c0.2-1.4,0.9-2.5,2.1-3.5c1.2-0.9,2.5-1.4,3.9-1.4c1.5,0,2.8,0.5,3.9,1.6c1.1,1.1,1.7,2.4,1.7,4c0,0.1,0,0.1,0,0.2
		c0,0.1,0,0.1,0,0.2c0,0.1,0.1,0.2,0.2,0.2c0.1,0.2,0.2,0.4,0.2,0.6c0,0.5-0.3,0.7-0.8,0.8c-0.1,0-0.3,0.1-0.6,0.1L62.3,15v1.1
		c0,0.9,0.3,1.6,0.8,2.2c0.5,0.5,1.2,0.8,2,0.8c0.8,0,1.5-0.2,2-0.5c0.5-0.3,0.7-0.8,0.7-1.3C67.8,17.1,67.8,17,67.8,16.8z
		 M60.4,17.3c0.1-0.1,0.2-0.2,0.2-0.3c0-0.2,0-0.4-0.1-0.7c-0.3-1.2-0.5-2.1-0.5-2.6s0-0.9,0-1.1s0.1-0.5,0.1-0.8
		c0.1-0.5,0.2-1,0.3-1.4c0.1-0.3,0.1-0.4,0.1-0.5c0-0.2-0.1-0.3-0.2-0.4c-0.3,0.4-0.6,0.9-0.8,1.6s-0.3,1.2-0.4,1.7
		c0,0.2-0.3,0.4-0.7,0.6c0.4,0.2,0.7,0.4,0.7,0.6c0.3,1.3,0.5,2.2,0.7,2.5S60.3,17.1,60.4,17.3z M65.7,13V9.8c0-0.5-0.1-0.9-0.3-1.1
		C65.1,8.2,64.7,8,64.4,8S63.7,8,63.5,8.2c-0.2,0.1-0.4,0.3-0.6,0.5c-0.4,0.5-0.5,1.2-0.5,2.2v2.7L65.7,13z M67.5,12.7v-0.4
		c0-1.5-0.1-2.3-0.4-2.6c-0.1-0.1-0.2-0.2-0.4-0.3v3.4L67.5,12.7z"/>
	<path class="st0" d="M85.6,8.3c-0.2-0.1-0.4-0.2-0.8-0.2c-0.8,0-1.3,0.5-1.7,1.5l-0.4,1c-0.3,0.7-0.4,1.2-0.4,1.5
		c0,0.3,0,0.5,0.1,0.7c0.1,0.2,0.3,0.3,0.7,0.5c-0.8,0.2-1.4,0.6-1.7,1.2c-0.1,0.2-0.2,0.4-0.2,0.5l-1.9,5.3
		c-0.8,2.2-1.5,3.7-2.1,4.4c-0.6,0.7-1.3,1.1-2.2,1.1c-0.7,0-1.3-0.2-1.9-0.7c-0.7-0.5-1-1.1-1-1.7c0-0.4,0.1-0.7,0.3-0.9
		s0.4-0.3,0.6-0.3c0.2,0,0.3,0,0.4,0s0.1,0,0.2,0c0.1,0.1,0.3,0.2,0.4,0.4c-0.2,0.3-0.1,0.7,0.3,1c0.4,0.4,0.7,0.6,1,0.6
		c0.3,0,0.6-0.1,0.8-0.2s0.4-0.3,0.6-0.5c0.4-0.5,0.5-1.3,0.5-2.3c0-0.5-0.1-1.1-0.4-1.8c-0.1-0.2-0.2-0.4-0.3-0.7L74.6,15
		c-0.2-0.4-0.5-0.8-0.8-1.1c-0.4-0.3-0.8-0.5-1.2-0.6c0.5-0.3,0.8-0.6,0.8-1.1c0-0.3-0.1-0.8-0.4-1.4l-0.7-1.7
		c-0.2-0.5-0.4-0.7-0.5-0.9c-0.2-0.2-0.5-0.3-0.8-0.3c-0.3,0-0.5,0.1-0.7,0.2c-0.1-0.1-0.1-0.2-0.1-0.4c0-0.2,0-0.3,0.1-0.5
		c0-0.1,0.1-0.2,0.2-0.3c0.2-0.2,0.6-0.3,1-0.3s0.9,0.1,1.2,0.4c0.3-0.3,0.7-0.4,1.2-0.4c0.5,0,0.9,0.1,1.2,0.4
		c0.4-0.3,0.7-0.4,1.2-0.4c0.4,0,0.8,0.1,1,0.3c0.3,0.2,0.4,0.4,0.4,0.6c0,0.3,0,0.5-0.2,0.6c-0.2-0.1-0.4-0.2-0.6-0.2
		c-0.2,0-0.4,0.1-0.5,0.2s-0.2,0.3-0.2,0.6l2.7,7.3l2.6-7.5c-0.1-0.4-0.4-0.6-0.9-0.6c-0.3,0-0.6,0.1-0.9,0.2
		c-0.1-0.1-0.1-0.3-0.1-0.6s0.1-0.4,0.3-0.6c0.2-0.2,0.5-0.3,0.9-0.3c0.4,0,0.7,0.1,1,0.4c0.3-0.2,0.6-0.4,0.9-0.4s0.7,0.1,1,0.3
		c0.3-0.2,0.6-0.3,0.9-0.3s0.6,0.1,0.8,0.3c0.2,0.2,0.3,0.4,0.3,0.6C85.7,7.9,85.7,8.2,85.6,8.3z M74.3,9.4C74.1,9.6,74,9.7,74,9.9
		s0,0.3,0,0.4s0,0.2,0.1,0.3c0.1,0.2,0.2,0.6,0.4,1.1c0.2,0.5,0.3,0.8,0.3,0.9s0,0.3-0.1,0.4s-0.2,0.2-0.3,0.3
		c0.5,0.1,0.8,0.3,0.9,0.5c0.1,0.1,0.1,0.3,0.2,0.5l0.8,1.8c0.2,0.4,0.3,0.7,0.5,1.1c0.3-0.4,0.2-1.3-0.4-2.7L74.3,9.4z"/>
	<path class="st0" d="M6.5,43.2c-0.4,0.2-0.8,0.4-1.3,0.4s-0.9-0.1-1.3-0.4c-0.4,0.2-0.8,0.4-1.1,0.4s-0.6,0-0.8-0.1
		s-0.4-0.1-0.6-0.2c-0.3-0.2-0.5-0.5-0.5-0.8c0-0.2,0-0.3,0.1-0.4c0.2,0.1,0.4,0.2,0.7,0.2c0.7,0,1.2-0.3,1.4-0.9v-5.7
		c0-0.6-0.3-1.1-0.9-1.4L1.7,34c0.7-0.3,1.1-0.7,1.3-1c0.1-0.2,0.1-0.4,0.1-0.6v-4.9c-0.3-0.6-0.7-0.9-1.4-0.9
		c-0.3,0-0.5,0.1-0.7,0.2c-0.1-0.1-0.1-0.3-0.1-0.4s0-0.3,0.1-0.4s0.2-0.2,0.4-0.3c0.4-0.2,0.8-0.3,1.2-0.3s0.9,0.1,1.3,0.4
		c0.4-0.2,0.8-0.4,1.3-0.4s0.9,0.1,1.3,0.4c0.4-0.2,0.8-0.4,1.2-0.4c0.7,0,1.1,0.2,1.4,0.7c0.1,0.1,0.1,0.3,0.1,0.4s0,0.3-0.1,0.4
		c-0.2-0.1-0.4-0.2-0.6-0.2c-0.6,0-1,0.3-1.2,0.9v6.2h5.5v-6.2c-0.2-0.6-0.6-0.9-1.2-0.9c-0.3,0-0.5,0.1-0.6,0.2
		c-0.1-0.1-0.1-0.2-0.1-0.4s0-0.3,0.1-0.4c0.1-0.1,0.2-0.3,0.3-0.4c0.3-0.2,0.7-0.3,1.1-0.3c0.5,0,0.9,0.1,1.2,0.4
		c0.4-0.2,0.8-0.4,1.3-0.4s0.9,0.1,1.3,0.4c0.4-0.2,0.7-0.4,1.1-0.4c0.3,0,0.6,0,0.8,0.1s0.4,0.1,0.6,0.2c0.3,0.2,0.5,0.5,0.5,0.8
		c0,0.2,0,0.3-0.1,0.4c-0.2-0.1-0.4-0.2-0.7-0.2c-0.7,0-1.2,0.3-1.4,0.9v4.9c0,0.6,0.3,1.1,0.9,1.4c0.2,0.1,0.3,0.2,0.5,0.3
		c-0.5,0.2-0.8,0.4-0.9,0.6c-0.3,0.3-0.5,0.7-0.5,1.1v5.7c0.3,0.6,0.7,0.9,1.4,0.9c0.3,0,0.5-0.1,0.7-0.2c0.1,0.1,0.1,0.3,0.1,0.4
		s0,0.3-0.1,0.4c-0.1,0.1-0.2,0.2-0.4,0.3c-0.4,0.2-0.8,0.3-1.2,0.3s-0.9-0.1-1.3-0.4c-0.4,0.2-0.8,0.4-1.3,0.4s-0.9-0.1-1.3-0.4
		c-0.4,0.2-0.8,0.4-1.2,0.4c-0.7,0-1.1-0.2-1.4-0.7c-0.1-0.1-0.1-0.3-0.1-0.4s0-0.3,0.1-0.4c0.2,0.1,0.4,0.2,0.6,0.2
		c0.6,0,1-0.3,1.2-0.9v-6.2H7.3v6.2c0.2,0.6,0.6,0.9,1.2,0.9c0.3,0,0.5-0.1,0.6-0.2c0.1,0.1,0.1,0.2,0.1,0.4s0,0.3-0.1,0.4
		s-0.2,0.3-0.4,0.4c-0.3,0.2-0.6,0.3-1.1,0.3C7.3,43.6,6.9,43.5,6.5,43.2z M4.2,40.3c0.4-0.1,0.6-0.7,0.6-1.5c0-0.9,0.1-2.1,0.1-3.6
		s0-2.6,0-3.1c0-0.5,0-0.9,0-1.2c0-0.9-0.1-1.5-0.3-1.7c-0.1-0.2-0.3-0.3-0.4-0.4c0,2.7,0,4.3-0.1,4.6C4,33.7,3.7,33.9,3.3,34
		c0.5,0.2,0.7,0.4,0.8,0.6c0.1,0.4,0.1,1.7,0.1,4.1V40.3z M13.8,31.5c0,0.8,0,2.2,0,4.2s0,3.1,0.1,3.4c0.1,0.7,0.3,1,0.6,1.2v-1.5
		c0-2.1,0-3.3,0-3.5c0-0.3,0.1-0.5,0.1-0.6c0.1-0.3,0.3-0.5,0.7-0.6c-0.4-0.1-0.6-0.3-0.7-0.7c-0.1-0.4-0.1-1.9-0.1-4.6
		c-0.3,0.1-0.5,0.4-0.6,0.8C13.8,30,13.8,30.7,13.8,31.5z"/>
	<path class="st0" d="M32.2,43.6c-1.1,0-1.7-0.8-1.8-2.3C30,42,29.5,42.6,28.8,43s-1.4,0.6-2.2,0.6c-0.8,0-1.4-0.1-1.9-0.3
		c-0.5-0.2-0.9-0.5-1.2-0.9c-0.6-0.8-0.9-1.9-0.9-3.3v-0.7c0-0.9-0.5-1.6-1.4-2c0.6-0.3,0.9-0.5,1.1-0.7c0.2-0.3,0.4-0.6,0.4-1v-1.6
		c0-0.7-0.2-1-0.7-1.1c-0.1,0-0.3,0-0.5,0s-0.4,0.1-0.6,0.2c-0.1-0.1-0.2-0.3-0.2-0.5s0-0.3,0.1-0.5s0.2-0.4,0.4-0.6
		c0.4-0.4,0.9-0.6,1.4-0.6c0.5,0,1,0.1,1.5,0.3c0.3-0.5,0.8-0.7,1.2-0.7c0.8,0,1.2,0.4,1.2,1.3v7.6c0,1.5,0.3,2.4,1,2.7
		c0.2,0.1,0.5,0.1,0.7,0.1c0.3,0,0.5-0.1,0.7-0.2s0.4-0.3,0.6-0.5c0.3-0.4,0.5-0.9,0.6-1.6v-5.9c0-0.9-0.4-1.3-1.1-1.3
		c-0.3,0-0.5,0.1-0.7,0.2c-0.1-0.1-0.2-0.3-0.2-0.5s0-0.3,0.1-0.5s0.2-0.3,0.4-0.5c0.4-0.3,0.9-0.5,1.4-0.5s1.1,0.1,1.5,0.3
		c0.3-0.5,0.8-0.7,1.2-0.7c0.8,0,1.2,0.4,1.2,1.3v3.9c0,0.4,0.1,0.6,0.2,0.8c0.3,0.3,0.7,0.6,1.2,0.9c-1,0.4-1.4,1.1-1.4,2v3
		c0.1,0.6,0.5,0.9,1,0.9c0.3,0,0.5-0.1,0.7-0.2c0.1,0.1,0.2,0.3,0.2,0.6s-0.1,0.4-0.3,0.6c-0.2,0.2-0.6,0.3-1,0.3
		c-0.5,0-0.9-0.1-1.3-0.4C32.9,43.5,32.6,43.6,32.2,43.6z M24.3,36.4l0-1.5c0-0.7,0-1.2-0.1-1.4c-0.1-0.6-0.3-0.9-0.6-1v0.8
		c0,1.3,0,2.1-0.1,2.3c-0.1,0.2-0.2,0.4-0.3,0.5c-0.1,0.1-0.3,0.2-0.6,0.3c0.5,0.2,0.7,0.4,0.8,0.6c0.1,0.4,0.1,1.2,0.1,2.5v0.8
		c0.2-0.1,0.4-0.4,0.6-1c0-0.2,0.1-0.6,0.1-1.3L24.3,36.4z M31.3,40.3c0.5-0.2,0.7-1,0.7-2.6c0-0.3,0-0.7,0-1.1s0-0.8,0-1.1
		c0-0.3,0-0.6,0-0.9c0-1-0.1-1.6-0.3-1.8s-0.3-0.3-0.4-0.4V40.3z"/>
	<path class="st0" d="M39.9,43.1c-0.5,0.5-1,0.8-1.5,0.8c-0.3,0-0.5-0.1-0.6-0.3c0.2-0.2,0.3-0.4,0.3-0.5s0-0.3-0.1-0.4l-0.2-0.3
		l0.2,0.4c-0.2-0.1-0.3-0.2-0.4-0.4c-0.1-0.2-0.2-0.5-0.2-0.7s0.2-0.6,0.5-1c-0.2-0.2-0.2-0.5-0.2-0.7s0-0.5,0.1-0.7
		c0.1-0.2,0.2-0.3,0.3-0.5c0.3-0.3,0.6-0.4,1-0.4c0.2,0,0.4,0.1,0.5,0.2c-0.2,0.2-0.3,0.6-0.3,1.1s0.1,0.9,0.3,1.2
		c0.2,0.3,0.4,0.6,0.7,0.9c0.6,0.5,1.4,0.8,2.3,0.8c1,0,1.7-0.4,2.1-1.1c0.1-0.2,0.2-0.4,0.2-0.7s-0.1-0.4-0.2-0.6
		c-0.1-0.2-0.2-0.3-0.4-0.5c-0.3-0.3-0.7-0.6-1.3-0.9c-0.5-0.4-1.2-0.6-1.9-0.6c-0.5,0-0.8,0-1,0.1c0.1-0.2,0.2-0.5,0.2-0.7
		s-0.2-0.5-0.5-0.8s-0.6-0.6-0.8-0.8c-0.2-0.3-0.4-0.6-0.6-0.8c-0.3-0.5-0.4-1.1-0.4-1.7s0.1-1.1,0.4-1.6c0.2-0.5,0.6-0.8,1-1.2
		c0.9-0.7,2.1-1,3.6-1c0.7,0,1.2,0,1.4,0.1s0.5,0.1,0.6,0.2c0.2,0.1,0.5,0.1,0.8,0.1c0.3,0,0.5-0.1,0.6-0.2s0.2-0.3,0.2-0.4
		s0-0.2,0-0.3c0,0,0.1,0,0.2,0c0.1,0,0.2,0,0.3,0.1s0.2,0.1,0.3,0.2c0.2,0.2,0.3,0.4,0.3,0.7s0,0.4-0.1,0.5c0.2,0.2,0.3,0.5,0.3,0.9
		s-0.2,0.7-0.5,0.9c0.1,0.1,0.1,0.3,0.1,0.5s-0.1,0.4-0.3,0.6s-0.4,0.3-0.6,0.3c-0.3,0-0.6,0-0.7-0.1c0.1-0.2,0.2-0.5,0.2-0.8
		s-0.1-0.6-0.2-0.8c-0.2-0.3-0.4-0.5-0.6-0.6c-0.5-0.3-1-0.5-1.6-0.5c-0.8,0-1.3,0.2-1.6,0.8c-0.1,0.2-0.1,0.3-0.1,0.5
		c0,0.2,0,0.4,0.1,0.5s0.1,0.3,0.3,0.5c0.2,0.3,0.5,0.6,1,0.9c0.5,0.4,0.9,0.5,1.1,0.5c0.5,0,0.8-0.1,1.2-0.3
		c-0.1,0.4-0.1,0.6-0.1,0.8c0,0.2,0.2,0.5,0.5,0.8c1,0.7,1.7,1.3,2.1,1.9c0.4,0.6,0.5,1.2,0.5,1.9s-0.2,1.3-0.5,1.8
		s-0.7,0.9-1.2,1.3c-1.1,0.7-2.4,1.1-4,1.1C41.7,43.7,40.7,43.5,39.9,43.1z M39.4,32.3c-0.2,0.1-0.3,0.4-0.3,0.9s0.2,1,0.5,1.4
		c0.3,0.4,0.8,1,1.5,1.5c0.2,0.1,0.2,0.2,0.2,0.4c0,0.2,0,0.3,0,0.4c0.1,0,0.3,0,0.5-0.1c0.6-0.1,1.3,0.2,2.1,0.8
		c1.3,0.8,2,1.7,2,2.6c0,0.3,0,0.6-0.1,0.8c0.3-0.1,0.5-0.3,0.6-0.7c0-0.1,0.1-0.3,0.1-0.4c0-0.6-0.3-1.3-1-1.9s-1.7-1.3-2.9-1.9
		C40.4,35.1,39.4,33.8,39.4,32.3z"/>
	<path class="st0" d="M52.3,43.1c-0.5,0.5-1,0.8-1.5,0.8c-0.3,0-0.5-0.1-0.6-0.3c0.2-0.2,0.3-0.4,0.3-0.5s0-0.3-0.1-0.4l-0.2-0.3
		l0.2,0.4c-0.2-0.1-0.3-0.2-0.4-0.4c-0.1-0.2-0.2-0.5-0.2-0.7s0.2-0.6,0.5-1c-0.2-0.2-0.2-0.5-0.2-0.7s0-0.5,0.1-0.7
		s0.2-0.3,0.3-0.5c0.3-0.3,0.6-0.4,1-0.4c0.2,0,0.4,0.1,0.5,0.2c-0.2,0.2-0.3,0.6-0.3,1.1s0.1,0.9,0.3,1.2s0.4,0.6,0.7,0.9
		c0.6,0.5,1.4,0.8,2.3,0.8c1,0,1.7-0.4,2.1-1.1c0.1-0.2,0.2-0.4,0.2-0.7S57.1,40.2,57,40c-0.1-0.2-0.2-0.3-0.4-0.5
		c-0.3-0.3-0.7-0.6-1.3-0.9c-0.5-0.4-1.2-0.6-1.9-0.6c-0.5,0-0.8,0-1,0.1c0.1-0.2,0.2-0.5,0.2-0.7s-0.2-0.5-0.5-0.8
		c-0.3-0.3-0.6-0.6-0.8-0.8s-0.4-0.6-0.6-0.8c-0.3-0.5-0.4-1.1-0.4-1.7s0.1-1.1,0.4-1.6c0.2-0.5,0.6-0.8,1-1.2c0.9-0.7,2.1-1,3.6-1
		c0.7,0,1.2,0,1.4,0.1s0.5,0.1,0.6,0.2c0.2,0.1,0.5,0.1,0.8,0.1c0.3,0,0.5-0.1,0.6-0.2c0.1-0.1,0.2-0.3,0.2-0.4s0-0.2,0-0.3
		c0,0,0.1,0,0.2,0s0.2,0,0.3,0.1s0.2,0.1,0.3,0.2c0.2,0.2,0.3,0.4,0.3,0.7s0,0.4-0.1,0.5c0.2,0.2,0.3,0.5,0.3,0.9s-0.2,0.7-0.5,0.9
		c0.1,0.1,0.1,0.3,0.1,0.5s-0.1,0.4-0.3,0.6s-0.4,0.3-0.6,0.3c-0.3,0-0.6,0-0.7-0.1c0.1-0.2,0.2-0.5,0.2-0.8s-0.1-0.6-0.2-0.8
		c-0.2-0.3-0.4-0.5-0.6-0.6c-0.5-0.3-1-0.5-1.6-0.5c-0.8,0-1.3,0.2-1.6,0.8c-0.1,0.2-0.1,0.3-0.1,0.5c0,0.2,0,0.4,0.1,0.5
		c0.1,0.2,0.1,0.3,0.3,0.5c0.2,0.3,0.5,0.6,1,0.9c0.5,0.4,0.9,0.5,1.1,0.5c0.5,0,0.8-0.1,1.2-0.3c-0.1,0.4-0.1,0.6-0.1,0.8
		c0,0.2,0.2,0.5,0.5,0.8c1,0.7,1.7,1.3,2.1,1.9c0.4,0.6,0.5,1.2,0.5,1.9s-0.2,1.3-0.5,1.8c-0.3,0.5-0.7,0.9-1.2,1.3
		c-1.1,0.7-2.4,1.1-4,1.1C54.1,43.7,53.2,43.5,52.3,43.1z M51.9,32.3c-0.2,0.1-0.3,0.4-0.3,0.9s0.2,1,0.5,1.4c0.3,0.4,0.8,1,1.5,1.5
		c0.2,0.1,0.2,0.2,0.2,0.4c0,0.2,0,0.3,0,0.4c0.1,0,0.3,0,0.5-0.1c0.6-0.1,1.3,0.2,2.1,0.8c1.3,0.8,2,1.7,2,2.6c0,0.3,0,0.6-0.1,0.8
		c0.3-0.1,0.5-0.3,0.6-0.7c0-0.1,0.1-0.3,0.1-0.4c0-0.6-0.3-1.3-1-1.9s-1.7-1.3-2.9-1.9C52.8,35.1,51.8,33.8,51.9,32.3z"/>
	<path class="st0" d="M64.6,43.2c-0.4,0.2-0.8,0.4-1.2,0.4c-0.5,0-0.8-0.1-1-0.3S62,42.9,62,42.7c0-0.3,0.1-0.5,0.2-0.6
		c0.2,0.1,0.4,0.2,0.7,0.2c0.5,0,0.8-0.3,1-0.8v-3.6c0-0.3-0.1-0.6-0.2-0.8c-0.2-0.2-0.6-0.5-1.2-0.8c0.5-0.2,0.9-0.5,1.1-0.6
		c0.3-0.3,0.4-0.6,0.4-0.9v-6.6c0-0.9-0.4-1.3-1.1-1.3c-0.3,0-0.5,0.1-0.7,0.2c-0.1-0.1-0.2-0.3-0.2-0.5s0-0.3,0.1-0.5
		s0.2-0.3,0.4-0.4c0.4-0.3,0.8-0.4,1.4-0.4s1,0,1.3,0.1c0.4-0.5,0.9-0.8,1.5-0.8c0.8,0,1.2,0.4,1.2,1.3v8.9c0,0.4,0.1,0.6,0.2,0.8
		c0.2,0.2,0.6,0.5,1.2,0.8c-0.6,0.3-1,0.5-1.1,0.7c-0.2,0.2-0.3,0.5-0.3,0.9v3.6c0.2,0.5,0.5,0.8,1,0.8c0.3,0,0.5-0.1,0.7-0.2
		c0.1,0.1,0.2,0.3,0.2,0.6s-0.1,0.4-0.3,0.6c-0.2,0.2-0.6,0.3-1,0.3c-0.4,0-0.9-0.1-1.2-0.4c-0.3,0.2-0.7,0.4-1.1,0.4
		C65.4,43.6,65,43.5,64.6,43.2z M64.9,40.2c0.4-0.2,0.6-0.7,0.6-1.5c0-0.3,0-0.7,0-1.1s0-0.7,0-0.9c0-0.2,0-0.3,0-0.4v-1.1
		c0-0.3,0-0.6,0-1v-1.1c0-2.1-0.1-3.2-0.1-3.5c-0.1-0.5-0.3-0.8-0.6-1v3.9c0,1.6,0,2.5-0.1,2.7c0,0.2-0.1,0.3-0.1,0.4
		c-0.1,0.2-0.3,0.4-0.8,0.6c0.5,0.2,0.7,0.4,0.8,0.6c0.1,0.4,0.1,1.2,0.1,2.5V40.2z"/>
	<path class="st0" d="M81.2,39.8c0.2-0.3,0.5-0.5,0.9-0.5c0.3,0,0.6,0.1,0.7,0.4c0.1,0.2,0.2,0.5,0.2,0.7S83,41,82.9,41.3
		c-0.1,0.3-0.4,0.6-0.6,0.8s-0.6,0.5-0.9,0.6c-0.3,0.2-0.7,0.3-1.1,0.5c-0.8,0.3-1.6,0.4-2.4,0.4s-1.6-0.1-2.4-0.4s-1.4-0.7-1.9-1.2
		c-1-1-1.6-2.3-1.9-4.1c-0.1-0.4-0.1-0.7-0.3-0.8c-0.2-0.3-0.6-0.6-1.2-0.8c0.7-0.3,1.1-0.8,1.3-1.5c0.1-0.2,0.1-0.4,0.1-0.6
		c0.2-1.4,0.9-2.5,2.1-3.5c1.2-0.9,2.5-1.4,3.9-1.4c1.5,0,2.8,0.5,3.9,1.6c1.1,1.1,1.7,2.4,1.7,4c0,0.1,0,0.1,0,0.2
		c0,0.1,0,0.1,0,0.2c0,0.1,0.1,0.2,0.2,0.2c0.1,0.2,0.2,0.4,0.2,0.6c0,0.5-0.3,0.7-0.8,0.8c-0.1,0-0.3,0.1-0.6,0.1L75.8,38v1.1
		c0,0.9,0.3,1.6,0.8,2.2c0.5,0.5,1.2,0.8,2,0.8c0.8,0,1.5-0.2,2-0.5c0.5-0.3,0.7-0.8,0.7-1.3C81.3,40.1,81.3,40,81.2,39.8z
		 M73.9,40.3C74,40.2,74,40.1,74,40c0-0.2,0-0.4-0.1-0.7c-0.3-1.2-0.5-2.1-0.5-2.6s0-0.9,0-1.1s0.1-0.5,0.1-0.8
		c0.1-0.5,0.2-1,0.3-1.4C74,33.1,74,33,74,32.9c0-0.2-0.1-0.3-0.2-0.4c-0.3,0.4-0.6,0.9-0.8,1.6c-0.2,0.7-0.3,1.2-0.4,1.7
		c0,0.2-0.3,0.4-0.7,0.6c0.4,0.2,0.7,0.4,0.7,0.6c0.3,1.3,0.5,2.2,0.7,2.5S73.7,40.1,73.9,40.3z M79.2,36v-3.3
		c0-0.5-0.1-0.9-0.3-1.1c-0.4-0.4-0.7-0.6-1.1-0.6c-0.4,0-0.6,0.1-0.9,0.2c-0.2,0.1-0.4,0.3-0.6,0.5c-0.4,0.5-0.5,1.2-0.5,2.2v2.7
		L79.2,36z M80.9,35.7v-0.4c0-1.5-0.1-2.3-0.4-2.6c-0.1-0.1-0.2-0.2-0.4-0.3v3.4L80.9,35.7z"/>
</g>
</svg>
